<svg width="900" height="93" viewBox="0 0 900 93" fill="none" xmlns="http://www.w3.org/2000/svg">
<path d="M0 26L21.5 27.7C43 29.3 86 32.7 128.8 34.5C171.7 36.3 214.3 36.7 257.2 38.3C300 40 343 43 385.8 41C428.7 39 471.3 32 514.2 21.8C557 11.7 600 -1.69999 642.8 0.800008C685.7 3.30001 728.3 21.7 771.2 25.3C814 29 857 18 878.5 12.5L900 7.00001V93H878.5C857 93 814 93 771.2 93C728.3 93 685.7 93 642.8 93C600 93 557 93 514.2 93C471.3 93 428.7 93 385.8 93C343 93 300 93 257.2 93C214.3 93 171.7 93 128.8 93C86 93 43 93 21.5 93H0V26Z" fill="black"/>
</svg>
